<svg xmlns="http://www.w3.org/2000/svg" viewBox="0 0 64 64">
  <path
    d="M0,32v32h64.002v-64.002h-64.002zm51.577,-2.55c1.625,0.406,2.865,1.128,4.003,2.306c0.59,0.63,1.463,1.778,1.534,2.052c0.02,0.08,-2.763,1.95,-4.45,2.997c-0.06,0.04,-0.305,-0.223,-0.58,-0.63c-0.823,-1.2,-1.686,-1.717,-3.007,-1.808c-1.94,-0.132,-3.2,0.884,-3.18,2.58c0,0.498,0.07,0.792,0.274,1.2c0.427,0.884,1.22,1.412,3.708,2.49c4.582,1.97,6.542,3.27,7.76,5.12c1.36,2.062,1.666,5.354,0.742,7.802c-1.016,2.662,-3.535,4.47,-7.08,5.07c-1.097,0.193,-3.698,0.163,-4.876,-0.05c-2.57,-0.457,-5.008,-1.727,-6.512,-3.393c-0.59,-0.65,-1.737,-2.347,-1.666,-2.47c0.03,-0.04,0.295,-0.203,0.59,-0.376l2.377,-1.37l1.84,-1.067l0.386,0.57c0.538,0.823,1.717,1.95,2.428,2.326c2.042,1.077,4.846,0.924,6.227,-0.315c0.59,-0.538,0.833,-1.097,0.833,-1.92c0,-0.742,-0.09,-1.067,-0.477,-1.625c-0.498,-0.71,-1.514,-1.31,-4.4,-2.56c-3.302,-1.422,-4.724,-2.306,-6.024,-3.708c-0.752,-0.813,-1.463,-2.113,-1.758,-3.2c-0.244,-0.904,-0.305,-3.17,-0.112,-4.084c0.68,-3.2,3.088,-5.415,6.563,-6.075c1.128,-0.213,3.75,-0.132,4.856,0.142zm-15.025,2.67l0.02,2.62h-8.33v23.67h-5.892v-23.67h-8.33v-2.57l0.07,-2.64c0.03,-0.04,5.1,-0.06,11.246,-0.05l11.185,0.03z" />
</svg>